HIERARCHY
ROOT Hips
{
	OFFSET -3.958830 18.904000 13.208200
	CHANNELS 6 Xposition Yposition Zposition Zrotation Yrotation Xrotation 
	JOINT LHipJoint
	{
		OFFSET 0.000000 0.000000 0.000000
		CHANNELS 3 Zrotation Yrotation Xrotation
		JOINT LeftUpLeg
		{
			OFFSET 1.800000 -1.400000 0.085000
			CHANNELS 3 Zrotation Yrotation Xrotation
			JOINT LeftLeg
			{
				OFFSET 2.215000 -6.000000 0.000000
				CHANNELS 3 Zrotation Yrotation Xrotation
				JOINT LeftFoot
				{
					OFFSET 2.500000 -6.900000 0.000000
					CHANNELS 3 Zrotation Yrotation Xrotation
					JOINT LeftToeBase
					{
						OFFSET 0.200000 -0.500000 1.950000
						CHANNELS 3 Zrotation Yrotation Xrotation
						End Site
						{
							OFFSET 0.000000 0.000000 0.000000
						}
					}
				}
			}
		}
	}
	JOINT RHipJoint
	{
		OFFSET 0.000000 0.000000 0.000000
		CHANNELS 3 Zrotation Yrotation Xrotation
		JOINT RightUpLeg
		{
			OFFSET -1.800000 -1.400000 0.085000
			CHANNELS 3 Zrotation Yrotation Xrotation
			JOINT RightLeg
			{
				OFFSET -2.215000 -6.000000 0.000000
				CHANNELS 3 Zrotation Yrotation Xrotation
				JOINT RightFoot
				{
					OFFSET -2.500000 -6.900000 0.000000
					CHANNELS 3 Zrotation Yrotation Xrotation
					JOINT RightToeBase
					{
						OFFSET -0.200000 -0.500000 1.950000
						CHANNELS 3 Zrotation Yrotation Xrotation
						End Site
						{
							OFFSET 0.000000 0.000000 0.000000
						}
					}
				}
			}
		}
	}
	JOINT LowerBack
	{
		OFFSET 0.000000 0.000000 0.000000
		CHANNELS 3 Zrotation Yrotation Xrotation
		JOINT Spine
		{
			OFFSET -0.087000 1.940000 -0.288900
			CHANNELS 3 Zrotation Yrotation Xrotation
			JOINT Spine1
			{
				OFFSET 0.000000 1.950000 0.060000
				CHANNELS 3 Zrotation Yrotation Xrotation
				JOINT Neck
				{
					OFFSET 0.000000 0.000000 0.000000
					CHANNELS 3 Zrotation Yrotation Xrotation
					JOINT Neck1
					{
						OFFSET 0.000000 1.600000 0.340000
						CHANNELS 3 Zrotation Yrotation Xrotation
						JOINT Head
						{
							OFFSET 0.000000 1.667000 -0.240000
							CHANNELS 3 Zrotation Yrotation Xrotation
							End Site
							{
								OFFSET 0.000000 0.000000 0.000000
							}
						}
					}
				}
				JOINT LeftShoulder
				{
					OFFSET 0.000000 0.000000 0.000000
					CHANNELS 3 Zrotation Yrotation Xrotation
					JOINT LeftArm
					{
						OFFSET 2.700000 1.550000 -0.730000
						CHANNELS 3 Zrotation Yrotation Xrotation
						JOINT LeftForeArm
						{
							OFFSET 5.450000 0.000000 0.000000
							CHANNELS 3 Zrotation Yrotation Xrotation
							JOINT LeftHand
							{
								OFFSET 3.450000 0.000000 0.000000
								CHANNELS 3 Zrotation Yrotation Xrotation
								JOINT LeftHandIndex1
								{
									OFFSET 0.750000 0.000000 0.000000
									CHANNELS 3 Zrotation Yrotation Xrotation
									End Site
									{
										OFFSET 0.000000 0.000000 0.000000
									}
								}
							}
						}
					}
				}
				JOINT RightShoulder
				{
					OFFSET 0.000000 0.000000 0.000000
					CHANNELS 3 Zrotation Yrotation Xrotation
					JOINT RightArm
					{
						OFFSET -2.700000 1.550000 -0.730000
						CHANNELS 3 Zrotation Yrotation Xrotation
						JOINT RightForeArm
						{
							OFFSET -5.450000 0.000000 0.000000
							CHANNELS 3 Zrotation Yrotation Xrotation
							JOINT RightHand
							{
								OFFSET -3.450000 0.000000 0.000000
								CHANNELS 3 Zrotation Yrotation Xrotation
								JOINT RightHandIndex1
								{
									OFFSET -0.750000 0.000000 0.000000
									CHANNELS 3 Zrotation Yrotation Xrotation
									End Site
									{
										OFFSET 0.000000 0.000000 0.000000
									}
								}
							}
						}
					}
				}
			}
		}
	}
}
MOTION
Frames: 9
Frame Time: 0.016667
1.503260 17.597510 0.104480 -2.958987 -83.427926 5.558661 -15.631695 11.612356 4.748574 -9.857632 -7.076870 -45.869135 20.052257 1.722600 67.068721 0.533902 11.511350 0.703182 0.831490 0.386690 0.602230 18.010877 -10.704716 2.649809 -1.904681 5.028991 -13.441509 11.085495 -8.511633 29.081804 -0.742368 -5.487556 2.539851 0.387230 0.368270 0.597570 -4.732169 0.299755 -8.016991 14.423872 7.575288 20.917615 -1.609259 9.667725 9.886885 1.153717 -5.569652 -8.181809 -9.182335 6.941014 26.221798 -9.183230 6.202360 -19.756970 -21.878435 -3.921053 3.823815 -18.329281 9.497349 -0.864088 6.878591 -6.163638 -1.218924 -3.841484 2.845926 0.864330 0.289670 0.180450 0.492330 18.507136 12.723512 4.181801 29.838974 21.275250 -0.578705 -132.773872 57.356567 -115.610269 1.727423 -1.744236 -0.321670 0.224650 -0.292140 -0.230760 
1.507870 17.547470 0.099630 0.420061 -80.835945 2.902882 -15.652698 11.537066 4.780822 -10.513230 -7.654866 -45.376882 16.894114 2.089166 56.163058 -0.061629 9.344192 1.347654 0.907240 0.447000 0.681460 18.010353 -10.683605 2.629737 -1.095409 4.574029 -11.759550 11.186236 -8.759120 29.715710 -0.789206 -5.737149 2.430379 0.464060 0.348730 0.590300 -4.607509 0.251534 -7.849840 12.651013 8.492153 18.094077 -0.228445 9.494724 11.015742 0.843616 -4.510635 -7.756488 -7.288375 5.912264 25.198163 -8.365810 5.862740 -19.145680 -21.686731 -4.604240 3.647096 -14.829215 7.480361 -0.225652 8.821791 -6.642542 -1.305416 -3.852553 2.921476 0.848420 0.303080 0.149750 0.483230 19.075539 12.270741 4.124553 27.511602 20.495019 -0.476549 -128.968092 57.375198 -109.638893 1.709351 -1.688691 -0.337820 0.203890 -0.325510 -0.266500 
1.489040 17.466970 0.099320 3.763247 -76.980796 0.908345 -15.658660 11.474030 4.792808 -11.767897 -8.366098 -43.763305 13.302198 2.045193 43.415263 -0.654674 6.766807 2.223774 0.979670 0.540670 0.706310 18.028518 -10.653083 2.554578 -0.756235 3.258527 -9.886026 11.745233 -8.661984 26.903661 -0.739566 -5.661834 2.442108 0.574330 0.393330 0.600740 -4.372000 0.076584 -7.552810 9.809232 8.937055 13.958355 1.727704 8.574672 11.912951 0.284048 -3.682987 -7.007927 -5.774847 4.983388 23.605601 -7.493860 5.092110 -16.857790 -21.219140 -4.593810 3.119813 -11.628648 5.444922 0.251830 9.438975 -8.021500 -1.443870 -3.911588 3.026292 0.757650 0.377080 0.084400 0.503960 20.022755 11.230826 3.847377 25.362764 19.692024 0.270872 -125.157396 58.280663 -104.503264 1.663564 -1.639562 -0.340540 0.195840 -0.349290 -0.259770 
1.475990 17.375610 0.100120 5.168959 -75.533739 0.869760 -15.640904 11.487064 4.579264 -11.400178 -7.828764 -42.141681 7.181974 2.940161 30.596410 -1.182807 4.520218 3.059277 1.042230 0.612550 0.714900 18.055912 -10.710359 2.520274 -0.014266 2.278613 -8.498904 10.980547 -8.033419 24.288415 -0.676154 -5.501752 2.474587 0.686450 0.483910 0.643880 -4.238433 0.034836 -7.173549 7.394622 9.916680 9.975149 3.600194 8.619108 12.563542 -0.312369 -3.321669 -6.065343 -4.977620 4.787266 22.017915 -6.791860 4.426570 -15.076150 -20.600654 -3.783251 2.240275 -10.125376 3.409547 0.371253 11.292101 -11.008381 -1.828109 -4.028719 3.112910 0.673210 0.480160 0.010260 0.526320 20.783911 10.034280 3.437601 23.250728 19.466732 1.419086 -121.719711 59.350566 -99.924979 1.566623 -1.543118 -0.353390 0.221220 -0.330460 -0.253930 
1.462630 17.273010 0.123940 4.941185 -72.601187 2.877766 -15.634059 11.234697 4.555778 -11.273378 -8.250154 -41.971225 1.943627 3.109707 20.914980 -1.529530 3.320266 3.586738 1.076650 0.694630 0.676650 18.131872 -10.626719 2.436493 0.583639 1.255030 -7.331552 11.079946 -7.579247 20.540407 -0.590483 -5.384280 2.546832 0.835770 0.655470 0.656210 -4.246546 0.081815 -6.928579 6.095639 9.972374 5.809189 4.694234 8.072014 12.686945 -0.829879 -2.827112 -5.111541 -3.949313 4.908993 20.267565 -6.827320 4.048030 -12.286390 -19.555445 -2.493480 1.106052 -9.961834 0.873043 0.374454 13.871296 -15.562565 -2.439286 -4.201415 3.120637 0.551660 0.655260 -0.107080 0.580420 20.947094 7.955733 2.906779 22.705832 18.759428 2.918530 -119.988911 60.636929 -98.373776 1.433263 -1.504741 -0.418150 0.315810 -0.313370 -0.230810 
1.474590 17.170230 0.149870 5.440823 -70.775588 3.085160 -15.635233 11.028446 4.599321 -11.549274 -8.653119 -42.018926 -1.133175 3.077945 15.696457 -1.653020 2.857501 3.819813 1.111850 0.750270 0.654960 18.169724 -10.589530 2.416957 0.778745 0.393982 -5.546640 10.956560 -7.095608 17.044033 -0.546078 -5.266367 2.629423 0.916460 0.727260 0.590560 -4.359584 0.227681 -6.893444 6.063801 9.986491 4.259645 4.358398 8.161480 12.357915 -1.196253 -3.101552 -4.673171 -4.277118 4.153454 19.670761 -5.382930 2.296410 -11.092740 -18.296587 -1.384626 0.109100 -10.621007 -1.389713 -0.009538 16.971691 -21.287523 -3.344249 -4.181369 3.123984 0.507950 0.681400 -0.179680 0.625070 20.349131 6.821894 2.988030 22.585801 17.953656 3.752038 -117.578441 62.709366 -97.173775 1.419358 -1.286782 -0.469690 0.393140 -0.336430 -0.205390 
1.492370 17.065920 0.167280 5.385096 -69.594088 3.997643 -15.645982 10.754730 4.737175 -11.897218 -9.359360 -43.916276 -1.633254 3.085736 15.571687 -1.703814 2.877748 3.819440 1.177810 0.845510 0.632670 18.215157 -10.528220 2.401282 1.375151 -0.181534 -4.440713 10.105852 -6.457046 14.079600 -0.513342 -5.156493 2.676380 1.016400 0.791540 0.592590 -4.478051 0.444366 -6.884819 6.047142 10.161905 3.016977 3.751714 8.506232 11.471630 -1.462602 -3.247502 -3.906465 -4.250796 3.687691 18.553289 -4.467140 0.850410 -10.255530 -17.457282 0.458322 -1.224129 -12.335945 -4.539366 -0.067511 23.947446 -25.462228 -5.119509 -4.240743 3.173673 0.436790 0.731390 -0.236120 0.669570 19.916468 4.963948 2.751139 23.405975 17.589999 5.271631 -113.491511 65.876695 -94.444846 1.354078 -0.729477 -0.468940 0.429690 -0.341540 -0.172770 
1.496360 16.987350 0.178070 5.514148 -68.244562 4.139108 -15.685075 10.517606 4.957400 -12.672544 -10.401876 -46.228400 0.922970 2.992439 20.395585 -1.698406 3.317009 3.654612 1.189780 0.854750 0.608220 18.234017 -10.406911 2.403229 1.828257 -0.608097 -3.110445 9.456049 -5.984936 11.454679 -0.489417 -5.111560 2.707470 1.060680 0.850500 0.580340 -4.472507 0.534538 -6.940548 5.572015 10.233522 2.816296 3.297872 8.857430 10.190579 -1.437810 -3.026441 -3.059541 -3.674316 3.109077 17.663247 -4.151870 -0.148170 -9.574740 -18.111972 1.986766 -2.324625 -13.995535 -5.956793 -0.310609 33.806831 -34.227891 -9.160722 -4.258314 3.173913 0.413490 0.767670 -0.294590 0.686340 20.425684 3.289052 2.351961 24.466988 16.946296 5.885575 -107.395076 69.843046 -87.846935 1.103909 0.818958 -0.504000 0.469130 -0.320570 -0.169480 
1.490120 16.940900 0.193910 4.026756 -66.781943 5.744689 -15.707670 10.223580 5.157704 -12.065394 -11.412602 -48.886494 4.076760 2.860422 28.232787 -1.514097 4.352866 3.294267 1.164170 0.847330 0.559880 18.285234 -10.277143 2.397536 2.578641 -0.883430 -2.223194 9.436289 -5.747393 9.636250 -0.467984 -5.143687 2.761644 1.071750 0.933980 0.553840 -4.549173 0.709371 -6.967878 6.220926 9.729537 2.667617 2.089428 8.782768 7.362799 -1.038633 -3.008879 -1.370777 -3.440260 2.964776 17.214458 -4.447960 -0.372130 -7.920470 -19.293099 3.454411 -2.238371 -18.434913 -6.909058 -0.132566 49.673590 -39.360749 -15.845967 -4.300447 3.032211 0.362780 0.827150 -0.348700 0.732650 20.457476 2.900901 -1.068089 27.600427 13.442252 -5.575494 110.999288 89.997700 119.292277 0.185250 1.396431 -0.538800 0.508860 -0.341970 -0.136940 
